<?xml version="1.0" encoding="UTF-8" standalone="no"?>
<!-- Created with Inkscape (http://www.inkscape.org/) -->

<svg
   width="1011.604"
   height="269.39899"
   viewBox="0 0 1011.604 269.39899"
   version="1.1"
   id="svg1"
   xml:space="preserve"
   inkscape:version="1.4.2 (f4327f4, 2025-05-13)"
   sodipodi:docname="banner.svg"
   xmlns:inkscape="http://www.inkscape.org/namespaces/inkscape"
   xmlns:sodipodi="http://sodipodi.sourceforge.net/DTD/sodipodi-0.dtd"
   xmlns="http://www.w3.org/2000/svg"
   xmlns:svg="http://www.w3.org/2000/svg"><sodipodi:namedview
     id="namedview1"
     pagecolor="#505050"
     bordercolor="#eeeeee"
     borderopacity="1"
     inkscape:showpageshadow="0"
     inkscape:pageopacity="0"
     inkscape:pagecheckerboard="0"
     inkscape:deskcolor="#505050"
     inkscape:document-units="px"
     inkscape:zoom="0.63"
     inkscape:cx="577.77778"
     inkscape:cy="396.03175"
     inkscape:window-width="1920"
     inkscape:window-height="1009"
     inkscape:window-x="-8"
     inkscape:window-y="-8"
     inkscape:window-maximized="1"
     inkscape:current-layer="svg1"
     showgrid="false"
     showguides="true"><inkscape:grid
       id="grid4"
       units="px"
       originx="0"
       originy="0"
       spacingx="1"
       spacingy="1"
       empcolor="#0099e5"
       empopacity="0.30196078"
       color="#0099e5"
       opacity="0.14901961"
       empspacing="5"
       enabled="true"
       visible="false" /></sodipodi:namedview><defs
     id="defs1"><linearGradient
       x1="24.714632"
       y1="22.897127"
       x2="151.13583"
       y2="148.33623"
       id="a"
       gradientTransform="matrix(14.771862,0,0,14.804809,-1031.631,-1566.9985)"
       gradientUnits="userSpaceOnUse"><stop
         stop-color="#387EB8"
         offset="0%"
         id="stop1" /><stop
         stop-color="#366994"
         offset="100%"
         id="stop2" /></linearGradient><linearGradient
       x1="102.48345"
       y1="103.26573"
       x2="238.2592"
       y2="231.90517"
       id="b"
       gradientTransform="matrix(14.771861,0,0,14.804809,-1031.631,-1566.9985)"
       gradientUnits="userSpaceOnUse"><stop
         stop-color="#FFE052"
         offset="0%"
         id="stop3" /><stop
         stop-color="#FFC331"
         offset="100%"
         id="stop4" /></linearGradient><filter
       inkscape:label="Soft Focus Lens"
       inkscape:menu="Image Effects"
       inkscape:menu-tooltip="Glowing image content without blurring it"
       style="color-interpolation-filters:sRGB"
       id="filter6"
       x="-0.0234375"
       y="-0.0234375"
       width="1.046875"
       height="1.046875"><feGaussianBlur
         stdDeviation="5"
         result="result3"
         id="feGaussianBlur4" /><feColorMatrix
         values="1 0 0 0 0 0 1 0 0 0 0 0 1 0 0 0 0 0 50 0 "
         result="result7"
         id="feColorMatrix4" /><feComposite
         operator="in"
         in2="SourceGraphic"
         result="result9"
         id="feComposite4" /><feComposite
         in2="result7"
         operator="arithmetic"
         in="result9"
         k1="0.5"
         k3="0.5"
         result="result1"
         id="feComposite5"
         k2="0"
         k4="0" /><feBlend
         in2="result1"
         result="result5"
         mode="screen"
         in="SourceGraphic"
         id="feBlend5" /><feBlend
         in2="result5"
         mode="darken"
         in="result5"
         result="result6"
         id="feBlend6" /><feComposite
         in2="SourceGraphic"
         operator="in"
         result="result8"
         id="feComposite6" /></filter></defs><g
     inkscape:label="Capa 1"
     inkscape:groupmode="layer"
     id="layer1"
     transform="translate(-48.809731,-205.49508)"><path
       d="m 128.757,254.126 c 64.832,0 60.784,-28.115 60.784,-28.115 l -0.072,-29.127 H 127.6 v -8.745 h 86.441 c 0,0 41.486,4.705 41.486,-60.712 0,-65.416 -36.21,-63.096 -36.21,-63.096 h -21.61 v 30.355 c 0,0 1.165,36.21 -35.632,36.21 h -61.362 c 0,0 -34.475,-0.557 -34.475,33.32 v 56.013 c 0,0 -5.235,33.897 62.518,33.897 z m 34.114,-19.586 a 11.12,11.12 0 0 1 -11.13,-11.13 11.12,11.12 0 0 1 11.13,-11.131 11.12,11.12 0 0 1 11.13,11.13 11.12,11.12 0 0 1 -11.13,11.13 z"
       fill="url(#b)"
       id="path5"
       style="fill:url(#b);stroke-width:14.7874"
       transform="matrix(0.66029712,0,0,0.66029781,48.713782,307.09531)" /><text
       xml:space="preserve"
       style="font-style:normal;font-variant:normal;font-weight:normal;font-stretch:normal;font-size:192px;font-family:'BBH Bogle';-inkscape-font-specification:'BBH Bogle, Normal';font-variant-ligatures:normal;font-variant-caps:normal;font-variant-numeric:normal;font-variant-east-asian:normal;text-align:start;writing-mode:lr-tb;direction:ltr;text-anchor:start;fill:#ffffff;fill-opacity:1;stroke-width:119.074;paint-order:fill markers stroke"
       x="141.8877"
       y="432.20007"
       id="text1"
       inkscape:label="text1"><tspan
         sodipodi:role="line"
         id="tspan1"
         x="141.8877"
         y="432.20007"
         style="font-style:normal;font-variant:normal;font-weight:normal;font-stretch:normal;font-size:192px;font-family:'BBH Bogle';-inkscape-font-specification:'BBH Bogle, Normal';font-variant-ligatures:normal;font-variant-caps:normal;font-variant-numeric:normal;font-variant-east-asian:normal;stroke-width:119.074">Py                   -NG</tspan></text><text
       xml:space="preserve"
       style="font-style:normal;font-variant:normal;font-weight:normal;font-stretch:normal;font-size:21.3333px;font-family:'BBH Bartle';-inkscape-font-specification:'BBH Bartle, Normal';font-variant-ligatures:normal;font-variant-caps:normal;font-variant-numeric:normal;font-variant-east-asian:normal;text-align:start;writing-mode:lr-tb;direction:ltr;text-anchor:start;fill:#ffffff;fill-opacity:1;stroke-width:13.833;paint-order:fill markers stroke"
       x="305.21606"
       y="456.39969"
       id="text2"><tspan
         sodipodi:role="line"
         id="tspan2"
         x="305.21606"
         y="456.39969"
         style="font-style:normal;font-variant:normal;font-weight:normal;font-stretch:normal;font-size:21.3333px;font-family:'BBH Bartle';-inkscape-font-specification:'BBH Bartle, Normal';font-variant-ligatures:normal;font-variant-caps:normal;font-variant-numeric:normal;font-variant-east-asian:normal;stroke-width:13.833">Why not the newest?</tspan></text><g
       id="g2"
       transform="matrix(0.68017414,0,0,0.68017414,431.80208,188.29933)"
       style="stroke-width:3.90902"><path
         d="m 851.3,122.011 a 9.6,9.6 0 1 1 9.6,-9.6 9.602,9.602 0 0 1 -9.6,9.6 m -105.7,0 a 9.6,9.6 0 1 1 9.6,-9.6 9.602,9.602 0 0 1 -9.6,9.6 m 109.1,-57.6 19.2,-33.1 a 3.963,3.963 0 1 0 -6.9,-3.9 l -19.4,33.5 a 117.178,117.178 0 0 0 -49.1,-10.6 119.152,119.152 0 0 0 -49.2,10.5 l -19.5,-33.5 a 3.963,3.963 0 1 0 -6.9,3.9 l 19.1,33.1 a 113.107,113.107 0 0 0 -58.6,90.4 h 229.7 a 112.654,112.654 0 0 0 -58.4,-90.3"
         fill="#3ddc84"
         id="path2-8"
         style="stroke-width:3.90902" /></g><g
       id="g3"
       transform="matrix(0.66029712,0,0,0.66029781,48.713782,307.09531)"
       style="stroke-width:14.7874"><path
         d="m 126.916,0.072 c -64.832,0 -60.784,28.115 -60.784,28.115 l 0.072,29.128 h 61.868 V 66.06 H 41.631 c 0,0 -41.486,-4.705 -41.486,60.71 0,65.417 36.21,63.097 36.21,63.097 h 21.61 v -30.356 c 0,0 -1.165,-36.21 35.632,-36.21 h 61.362 c 0,0 34.475,0.557 34.475,-33.319 V 33.97 c 0,0 5.236,-33.898 -62.518,-33.898 z M 92.802,19.66 a 11.12,11.12 0 0 1 11.13,11.13 11.12,11.12 0 0 1 -11.13,11.13 11.12,11.12 0 0 1 -11.13,-11.13 11.12,11.12 0 0 1 11.13,-11.13 z"
         fill="url(#a)"
         id="path4"
         style="fill:url(#a);stroke-width:14.7874" /></g><rect
       style="fill:#000000;stroke-width:13.8642;paint-order:fill markers stroke"
       id="rect3"
       width="482.43115"
       height="140.5437"
       x="308.5975"
       y="295.42316" /><text
       xml:space="preserve"
       style="font-style:normal;font-variant:normal;font-weight:normal;font-stretch:normal;font-size:85.4672px;font-family:'Franklin Gothic Medium';-inkscape-font-specification:'Franklin Gothic Medium, Normal';font-variant-ligatures:normal;font-variant-caps:normal;font-variant-numeric:normal;font-variant-east-asian:normal;text-align:start;writing-mode:lr-tb;direction:ltr;text-anchor:start;fill:#ffffff;fill-opacity:1;stroke-width:109.476;paint-order:fill markers stroke"
       x="460.05948"
       y="388.78494"
       id="text3"
       transform="scale(0.98833156,1.0118062)"><tspan
         sodipodi:role="line"
         id="tspan3"
         x="460.05948"
         y="388.78494"
         style="font-style:normal;font-variant:normal;font-weight:normal;font-stretch:normal;font-size:85.4672px;font-family:'Franklin Gothic Medium';-inkscape-font-specification:'Franklin Gothic Medium, Normal';font-variant-ligatures:normal;font-variant-caps:normal;font-variant-numeric:normal;font-variant-east-asian:normal;fill:#ffffff;fill-opacity:1;stroke-width:109.476">TERMUX</tspan></text><g
       style="fill:none"
       id="g4"
       transform="matrix(0.2578125,0,0,0.2578125,309.67937,299)"><path
         d="m 156.5,142.5 h -43 l 85,113 v 1 l -85,113 h 43 l 85,-113 v -1 z"
         fill="#ffffff"
         id="path1" /><path
         d="m 398.5,341.5 h -128 v 28 h 128 z"
         fill="#ffffff"
         id="path2" /></g></g></svg>
